<?xml version="1.0" standalone="no"?>
<!DOCTYPE svg PUBLIC "-//W3C//DTD SVG 1.1//EN"
"http://www.w3.org/Graphics/SVG/1.1/DTD/svg11.dtd">
<svg width="100%" height="100%" version="1.1"
xmlns="http://www.w3.org/2000/svg"
xmlns:xlink="http://www.w3.org/1999/xlink">
<g fill-rule="evenodd"><path d="M 165.451,314.991 L 97.872,245.892 L 151.807,257.852 L 148.156,255.94 L 150.848,255.104 L 138.391,235.78 L 139.475,234.806 L 113.6,219.633 L 143.628,231.078 L 169.855,207.534 L 159.35,200.547 L 170.303,207.131 L 182.083,196.556 L 173.417,151.425 L 187.67,156.636 L 184.556,143.136 L 216.026,166.085 L 230.173,153.385 L 229.869,152.589 L 230.348,153.228 L 230.848,152.779 L 230.047,152.034 L 231.04,152.606 L 259.429,127.121 L 259.17,126.478 L 259.828,126.763 L 268.331,119.13 L 261.915,106.163 L 269.405,118.165 L 271.467,116.314 L 279.869,125.959 L 276.185,78.5145 L 299.045,97.5825 L 298.998,97.4558 L 310.428,104.535 L 309.266,81.7803 L 324.192,111.263 L 325.44,106.604 L 321.586,101.566 L 329.546,109.938 L 335.734,105.661 L 340.101,84.5697 L 356.013,91.6451 L 417.426,49.1968 L 421.183,69.4406 L 425.452,53.0913 L 425.073,90.398 L 425.406,92.1943 L 426.439,91.3353 L 425.472,92.5502 L 429.933,116.588 L 435.548,117.756 L 439.611,113.068 L 438.007,118.267 L 448.676,120.487 L 460.299,108.552 L 460.216,113.677 L 473.168,103.173 L 463.907,123.655 L 467.91,124.487 L 505.983,100.704 L 513.742,92.5839 L 509.73,98.3638 L 513.429,96.0531 L 524.358,36.3636 L 513.782,95.8323 L 533.414,83.5692 L 550.13,56.4865 L 547.804,74.5802 L 570.643,60.3137 L 549.47,120.249 L 565.634,110.466 L 565.877,122.71 L 627.74,93.2735 L 601.901,133.707 L 582.527,187.532 L 589.998,183.607 L 579.833,195.017 L 578.907,197.589 L 586.334,198.485 L 573.833,211.684 L 572.745,214.707 L 592.293,212.274 L 593.148,211.956 L 592.848,212.205 L 602.124,211.051 L 631.147,198.538 L 619.987,208.827 L 624.725,208.238 L 629.372,203.094 L 627.331,206.888 L 654.959,189.676 L 629.458,207.649 L 641.433,206.158 L 633.614,253.643 L 640.571,251.972 L 642.092,250.339 L 641.061,251.854 L 682.471,241.906 L 646.652,261.384 L 681.054,247.054 L 655.943,291.913 L 656.967,293.379 L 696.266,301.796 L 668.438,309.814 L 668.966,310.57 L 684.616,309.213 L 676.646,321.573 L 682.72,330.273 L 720.536,323.132 L 693.688,345.986 L 706.149,363.838 L 691.156,364.418 L 763.182,401.428 L 704.556,384.141 L 684.662,416.883 L 739.383,438.101 L 670.97,439.418 L 668.43,443.6 L 695.05,455.679 L 666.304,447.099 L 659.05,459.038 L 663.335,461.776 L 657.155,462.157 L 651.769,471.022 L 685.717,511.979 L 648.201,502.549 L 651.381,505.022 L 637.655,502.333 L 641.027,506.437 L 630.169,506.574 L 610.944,538.215 L 607.737,538.537 L 613.165,589.569 L 548.987,561.798 L 544.333,574.155 L 549.924,594.11 L 540.415,584.555 L 539.579,586.775 L 548.337,606.714 L 535.687,597.109 L 520.313,637.927 L 520.006,637.063 L 519.909,637.656 L 491.78,610.066 L 478.994,694.721 L 471.748,612.744 L 463.186,608.613 L 446.687,763.636 L 440.966,609.271 L 431.557,620.616 L 410.783,689.466 L 381.914,666.265 L 380.496,667.897 L 379.517,664.339 L 355.689,645.19 L 352.359,647.847 L 351.408,641.749 L 341.976,634.169 L 306.912,716.346 L 332.318,640.646 L 334.166,627.892 L 333.212,627.126 L 308.386,678.841 L 310.795,628.314 L 303.086,633.26 L 302.786,619.511 L 290.202,633.06 L 291.4,628.216 L 276.44,642.575 L 284.081,606.391 L 259.874,604.701 L 234.631,617.231 L 224.867,623.543 L 224.825,622.099 L 172.407,648.119 L 172.907,539.366 L 129.915,552.466 L 172.985,522.372 L 173.054,507.375 L 80.3444,514.94 L 107.806,490.721 L 98.1893,489.713 L 107.978,490.569 L 134.039,467.585 L 123.5,467.898 L 145.846,442.98 L 138.114,436.953 L 153.034,434.964 L 154.04,433.842 L 135.935,421.886 L 106.539,442.302 L 129.106,417.377 L 128.678,417.094 L 107.359,410.999 L 117.093,409.444 L 107.034,402.802 L 139.869,405.489 L 145.44,399.336 L 36.8176,300.349 z " style="fill-opacity:0.3;fill:rgb(255,165,16);stroke:rgb(255,165,16);stroke-width:0.5;shape-rendering='crispEdges';"/></g>
<rect x="234.917" y="451.948" width="66.0332" height="103.896" style="fill-opacity:0.3;fill:rgb(51,51,153);stroke:rgb(51,51,153);stroke-width:0.5;shape-rendering='crispEdges';"/>
<rect x="366.983" y="451.948" width="66.0332" height="103.896" style="fill-opacity:0.3;fill:rgb(51,51,153);stroke:rgb(51,51,153);stroke-width:0.5;shape-rendering='crispEdges';"/>
<rect x="300.95" y="451.948" width="66.0332" height="103.896" style="fill-opacity:0.3;fill:rgb(51,51,153);stroke:rgb(51,51,153);stroke-width:0.5;shape-rendering='crispEdges';"/>
<rect x="433.017" y="451.948" width="66.0332" height="103.896" style="fill-opacity:0.3;fill:rgb(51,51,153);stroke:rgb(51,51,153);stroke-width:0.5;shape-rendering='crispEdges';"/>
<rect x="499.05" y="451.948" width="66.0332" height="103.896" style="fill-opacity:0.3;fill:rgb(51,51,153);stroke:rgb(51,51,153);stroke-width:0.5;shape-rendering='crispEdges';"/>
<rect x="234.917" y="244.156" width="66.0332" height="103.896" style="fill-opacity:0.3;fill:rgb(51,51,153);stroke:rgb(51,51,153);stroke-width:0.5;shape-rendering='crispEdges';"/>
<rect x="168.884" y="348.052" width="66.0332" height="103.896" style="fill-opacity:0.3;fill:rgb(51,51,153);stroke:rgb(51,51,153);stroke-width:0.5;shape-rendering='crispEdges';"/>
<rect x="168.884" y="244.156" width="66.0332" height="103.896" style="fill-opacity:0.3;fill:rgb(51,51,153);stroke:rgb(51,51,153);stroke-width:0.5;shape-rendering='crispEdges';"/>
<rect x="234.917" y="348.052" width="66.0332" height="103.896" style="fill-opacity:0.3;fill:rgb(51,51,153);stroke:rgb(51,51,153);stroke-width:0.5;shape-rendering='crispEdges';"/>
<rect x="499.05" y="348.052" width="66.0332" height="103.896" style="fill-opacity:0.3;fill:rgb(51,51,153);stroke:rgb(51,51,153);stroke-width:0.5;shape-rendering='crispEdges';"/>
<rect x="433.017" y="348.052" width="66.0332" height="103.896" style="fill-opacity:0.3;fill:rgb(51,51,153);stroke:rgb(51,51,153);stroke-width:0.5;shape-rendering='crispEdges';"/>
<rect x="565.083" y="348.052" width="66.0332" height="103.896" style="fill-opacity:0.3;fill:rgb(51,51,153);stroke:rgb(51,51,153);stroke-width:0.5;shape-rendering='crispEdges';"/>
<rect x="366.983" y="348.052" width="66.0332" height="103.896" style="fill-opacity:0.3;fill:rgb(51,51,153);stroke:rgb(51,51,153);stroke-width:0.5;shape-rendering='crispEdges';"/>
<rect x="565.083" y="244.156" width="66.0332" height="103.896" style="fill-opacity:0.3;fill:rgb(51,51,153);stroke:rgb(51,51,153);stroke-width:0.5;shape-rendering='crispEdges';"/>
<rect x="300.95" y="348.052" width="66.0332" height="103.896" style="fill-opacity:0.3;fill:rgb(51,51,153);stroke:rgb(51,51,153);stroke-width:0.5;shape-rendering='crispEdges';"/>
<rect x="499.05" y="244.156" width="66.0332" height="103.896" style="fill-opacity:0.3;fill:rgb(51,51,153);stroke:rgb(51,51,153);stroke-width:0.5;shape-rendering='crispEdges';"/>
<rect x="300.95" y="244.156" width="66.0332" height="103.896" style="fill-opacity:0.3;fill:rgb(51,51,153);stroke:rgb(51,51,153);stroke-width:0.5;shape-rendering='crispEdges';"/>
<rect x="366.983" y="244.156" width="66.0332" height="103.896" style="fill-opacity:0.3;fill:rgb(51,51,153);stroke:rgb(51,51,153);stroke-width:0.5;shape-rendering='crispEdges';"/>
<rect x="433.017" y="244.156" width="66.0332" height="103.896" style="fill-opacity:0.3;fill:rgb(51,51,153);stroke:rgb(51,51,153);stroke-width:0.5;shape-rendering='crispEdges';"/>
<rect x="499.05" y="140.26" width="66.0332" height="103.896" style="fill-opacity:0.3;fill:rgb(51,51,153);stroke:rgb(51,51,153);stroke-width:0.5;shape-rendering='crispEdges';"/>
<rect x="300.95" y="140.26" width="66.0332" height="103.896" style="fill-opacity:0.3;fill:rgb(51,51,153);stroke:rgb(51,51,153);stroke-width:0.5;shape-rendering='crispEdges';"/>
<rect x="433.017" y="140.26" width="66.0332" height="103.896" style="fill-opacity:0.3;fill:rgb(51,51,153);stroke:rgb(51,51,153);stroke-width:0.5;shape-rendering='crispEdges';"/>
<rect x="366.983" y="140.26" width="66.0332" height="103.896" style="fill-opacity:0.3;fill:rgb(51,51,153);stroke:rgb(51,51,153);stroke-width:0.5;shape-rendering='crispEdges';"/>
<rect x="102.851" y="451.948" width="66.0332" height="103.896" style="fill-opacity:0.3;fill:rgb(153,204,0);stroke:rgb(153,204,0);stroke-width:0.5;shape-rendering='crispEdges';"/>
<rect x="234.917" y="555.844" width="66.0332" height="103.896" style="fill-opacity:0.3;fill:rgb(153,204,0);stroke:rgb(153,204,0);stroke-width:0.5;shape-rendering='crispEdges';"/>
<rect x="168.884" y="555.844" width="66.0332" height="103.896" style="fill-opacity:0.3;fill:rgb(153,204,0);stroke:rgb(153,204,0);stroke-width:0.5;shape-rendering='crispEdges';"/>
<rect x="36.8176" y="451.948" width="66.0332" height="103.896" style="fill-opacity:0.3;fill:rgb(153,204,0);stroke:rgb(153,204,0);stroke-width:0.5;shape-rendering='crispEdges';"/>
<rect x="300.95" y="659.74" width="66.0332" height="103.896" style="fill-opacity:0.3;fill:rgb(153,204,0);stroke:rgb(153,204,0);stroke-width:0.5;shape-rendering='crispEdges';"/>
<rect x="366.983" y="555.844" width="66.0332" height="103.896" style="fill-opacity:0.3;fill:rgb(153,204,0);stroke:rgb(153,204,0);stroke-width:0.5;shape-rendering='crispEdges';"/>
<rect x="300.95" y="555.844" width="66.0332" height="103.896" style="fill-opacity:0.3;fill:rgb(153,204,0);stroke:rgb(153,204,0);stroke-width:0.5;shape-rendering='crispEdges';"/>
<rect x="366.983" y="659.74" width="66.0332" height="103.896" style="fill-opacity:0.3;fill:rgb(153,204,0);stroke:rgb(153,204,0);stroke-width:0.5;shape-rendering='crispEdges';"/>
<rect x="433.017" y="659.74" width="66.0332" height="103.896" style="fill-opacity:0.3;fill:rgb(153,204,0);stroke:rgb(153,204,0);stroke-width:0.5;shape-rendering='crispEdges';"/>
<rect x="433.017" y="555.844" width="66.0332" height="103.896" style="fill-opacity:0.3;fill:rgb(153,204,0);stroke:rgb(153,204,0);stroke-width:0.5;shape-rendering='crispEdges';"/>
<rect x="565.083" y="555.844" width="66.0332" height="103.896" style="fill-opacity:0.3;fill:rgb(153,204,0);stroke:rgb(153,204,0);stroke-width:0.5;shape-rendering='crispEdges';"/>
<rect x="499.05" y="555.844" width="66.0332" height="103.896" style="fill-opacity:0.3;fill:rgb(153,204,0);stroke:rgb(153,204,0);stroke-width:0.5;shape-rendering='crispEdges';"/>
<rect x="565.083" y="451.948" width="66.0332" height="103.896" style="fill-opacity:0.3;fill:rgb(153,204,0);stroke:rgb(153,204,0);stroke-width:0.5;shape-rendering='crispEdges';"/>
<rect x="631.116" y="451.948" width="66.0332" height="103.896" style="fill-opacity:0.3;fill:rgb(153,204,0);stroke:rgb(153,204,0);stroke-width:0.5;shape-rendering='crispEdges';"/>
<rect x="234.917" y="140.26" width="66.0332" height="103.896" style="fill-opacity:0.3;fill:rgb(153,204,0);stroke:rgb(153,204,0);stroke-width:0.5;shape-rendering='crispEdges';"/>
<rect x="168.884" y="140.26" width="66.0332" height="103.896" style="fill-opacity:0.3;fill:rgb(153,204,0);stroke:rgb(153,204,0);stroke-width:0.5;shape-rendering='crispEdges';"/>
<rect x="102.851" y="140.26" width="66.0332" height="103.896" style="fill-opacity:0.3;fill:rgb(153,204,0);stroke:rgb(153,204,0);stroke-width:0.5;shape-rendering='crispEdges';"/>
<rect x="168.884" y="451.948" width="66.0332" height="103.896" style="fill-opacity:0.3;fill:rgb(153,204,0);stroke:rgb(153,204,0);stroke-width:0.5;shape-rendering='crispEdges';"/>
<rect x="102.851" y="348.052" width="66.0332" height="103.896" style="fill-opacity:0.3;fill:rgb(153,204,0);stroke:rgb(153,204,0);stroke-width:0.5;shape-rendering='crispEdges';"/>
<rect x="36.8176" y="348.052" width="66.0332" height="103.896" style="fill-opacity:0.3;fill:rgb(153,204,0);stroke:rgb(153,204,0);stroke-width:0.5;shape-rendering='crispEdges';"/>
<rect x="36.8176" y="244.156" width="66.0332" height="103.896" style="fill-opacity:0.3;fill:rgb(153,204,0);stroke:rgb(153,204,0);stroke-width:0.5;shape-rendering='crispEdges';"/>
<rect x="102.851" y="244.156" width="66.0332" height="103.896" style="fill-opacity:0.3;fill:rgb(153,204,0);stroke:rgb(153,204,0);stroke-width:0.5;shape-rendering='crispEdges';"/>
<rect x="234.917" y="36.3636" width="66.0332" height="103.896" style="fill-opacity:0.3;fill:rgb(153,204,0);stroke:rgb(153,204,0);stroke-width:0.5;shape-rendering='crispEdges';"/>
<rect x="631.116" y="348.052" width="66.0332" height="103.896" style="fill-opacity:0.3;fill:rgb(153,204,0);stroke:rgb(153,204,0);stroke-width:0.5;shape-rendering='crispEdges';"/>
<rect x="697.149" y="244.156" width="66.0332" height="103.896" style="fill-opacity:0.3;fill:rgb(153,204,0);stroke:rgb(153,204,0);stroke-width:0.5;shape-rendering='crispEdges';"/>
<rect x="631.116" y="244.156" width="66.0332" height="103.896" style="fill-opacity:0.3;fill:rgb(153,204,0);stroke:rgb(153,204,0);stroke-width:0.5;shape-rendering='crispEdges';"/>
<rect x="697.149" y="348.052" width="66.0332" height="103.896" style="fill-opacity:0.3;fill:rgb(153,204,0);stroke:rgb(153,204,0);stroke-width:0.5;shape-rendering='crispEdges';"/>
<rect x="565.083" y="36.3636" width="66.0332" height="103.896" style="fill-opacity:0.3;fill:rgb(153,204,0);stroke:rgb(153,204,0);stroke-width:0.5;shape-rendering='crispEdges';"/>
<rect x="631.116" y="140.26" width="66.0332" height="103.896" style="fill-opacity:0.3;fill:rgb(153,204,0);stroke:rgb(153,204,0);stroke-width:0.5;shape-rendering='crispEdges';"/>
<rect x="565.083" y="140.26" width="66.0332" height="103.896" style="fill-opacity:0.3;fill:rgb(153,204,0);stroke:rgb(153,204,0);stroke-width:0.5;shape-rendering='crispEdges';"/>
<rect x="499.05" y="36.3636" width="66.0332" height="103.896" style="fill-opacity:0.3;fill:rgb(153,204,0);stroke:rgb(153,204,0);stroke-width:0.5;shape-rendering='crispEdges';"/>
<rect x="366.983" y="36.3636" width="66.0332" height="103.896" style="fill-opacity:0.3;fill:rgb(153,204,0);stroke:rgb(153,204,0);stroke-width:0.5;shape-rendering='crispEdges';"/>
<rect x="433.017" y="36.3636" width="66.0332" height="103.896" style="fill-opacity:0.3;fill:rgb(153,204,0);stroke:rgb(153,204,0);stroke-width:0.5;shape-rendering='crispEdges';"/>
<rect x="300.95" y="36.3636" width="66.0332" height="103.896" style="fill-opacity:0.3;fill:rgb(153,204,0);stroke:rgb(153,204,0);stroke-width:0.5;shape-rendering='crispEdges';"/>
</svg>
